<svg width="36" height="40" viewBox="0 0 36 40" fill="none" xmlns="http://www.w3.org/2000/svg">
<path fill-rule="evenodd" clip-rule="evenodd" d="M28.4587 0.0486627C26.1047 0.480456 24.2918 2.03806 23.5409 4.27396C23.0965 5.59748 23.1439 7.23131 23.6641 8.51145C24.2477 9.94771 25.4732 11.2302 26.8649 11.8612C27.7805 12.2763 28.6072 12.4285 29.6838 12.3798C30.7814 12.3304 31.3231 12.1988 32.1998 11.769C33.401 11.1801 34.3857 10.182 35.0049 8.92573C35.5077 7.90562 35.6225 7.39737 35.6229 6.18939C35.6231 5.36341 35.5897 5.0567 35.4445 4.55205C34.8391 2.44733 33.1975 0.795839 31.128 0.209637C30.4739 0.0243484 29.0571 -0.0611035 28.4587 0.0486627ZM31.0593 1.43536C32.5697 1.95597 33.7318 3.12297 34.2363 4.62577C34.4196 5.17186 34.4462 5.37521 34.446 6.22848C34.4459 7.08675 34.4208 7.27556 34.2398 7.7792C33.9434 8.60448 33.591 9.15832 32.9633 9.78548C32.017 10.7312 30.7879 11.2321 29.414 11.2321C26.6611 11.2321 24.4066 8.96169 24.4066 6.18939C24.4066 2.74669 27.8092 0.315104 31.0593 1.43536ZM28.799 2.77616C28.2875 2.95856 27.8861 3.32914 27.6422 3.84396C27.2818 4.60505 27.4567 5.21213 28.0363 5.21213C28.3513 5.21213 28.6283 4.9227 28.6283 4.59356C28.6283 4.14934 29.1453 3.75249 29.6104 3.83974C29.7622 3.8682 29.9529 3.98711 30.07 4.12627C30.5106 4.64993 30.1991 5.40821 29.5051 5.50124C29.2717 5.53259 29.1218 5.60765 29.0106 5.74915C28.8658 5.93304 28.8533 6.04171 28.8764 6.90858C28.9045 7.96043 28.9466 8.06292 29.3864 8.15087C29.5871 8.19106 29.6725 8.16229 29.835 7.99983C30.0148 7.82001 30.0356 7.73823 30.0356 7.2109V6.62259L30.3288 6.47123C30.7132 6.27281 31.1702 5.7934 31.3217 5.42963C31.4876 5.03137 31.4751 4.2351 31.2966 3.84224C30.8692 2.90133 29.7671 2.43092 28.799 2.77616ZM13.7536 3.8449C12.6756 4.04965 11.5917 4.49146 10.7249 5.07953C10.2696 5.38835 9.17955 6.47921 8.86893 6.9368C6.96538 9.74092 7.12894 13.3737 9.27696 15.9992C10.343 17.3022 12.0346 18.2805 13.7434 18.5823C14.6306 18.7389 16.2306 18.6471 17.0966 18.3898C19.5376 17.6646 21.4305 15.7696 22.1928 13.288C22.3869 12.6557 22.4043 12.4898 22.4085 11.2321C22.4124 10.0264 22.3914 9.78963 22.2321 9.23845C21.4651 6.58506 19.3484 4.56369 16.6666 3.92355C15.9163 3.74444 14.4858 3.70581 13.7536 3.8449ZM15.963 4.9829C17.9908 5.3115 19.6998 6.5588 20.6155 8.37846C21.0997 9.34095 21.2795 10.1016 21.2788 11.1859C21.2778 12.7202 20.8134 14.0691 19.9085 15.1662C18.6484 16.6939 16.9676 17.4848 14.9787 17.486C13.1988 17.4871 11.7193 16.853 10.4867 15.5606C9.87004 14.914 9.72314 14.7092 9.36663 13.9988C7.68848 10.6551 9.36429 6.52885 12.9102 5.27389C13.8708 4.93388 14.9975 4.82646 15.963 4.9829ZM14.5349 7.40722C13.5906 7.63246 12.9401 8.35493 12.8573 9.27066C12.8122 9.76867 12.9498 10.0149 13.3224 10.1031C13.4932 10.1435 13.5824 10.1066 13.772 9.91698C13.9151 9.77383 14.0085 9.59941 14.0085 9.4751C14.0085 8.51449 15.4059 8.19239 15.8497 9.05074C15.9883 9.31859 15.994 9.71989 15.863 9.97882C15.7298 10.2421 15.2852 10.5284 15.0097 10.5284C14.8735 10.5284 14.7067 10.6049 14.5913 10.7204C14.407 10.9046 14.3994 10.9533 14.3994 11.9357C14.3994 12.9181 14.407 12.9668 14.5913 13.151C14.6969 13.2566 14.8743 13.343 14.9857 13.343C15.0971 13.343 15.2746 13.2566 15.3802 13.151C15.554 12.9773 15.5721 12.8961 15.5721 12.2921V11.6251L15.8371 11.5144C16.2445 11.3441 16.7497 10.8441 16.9518 10.4112C17.2901 9.68612 17.1539 8.74091 16.6213 8.11874C16.1449 7.56217 15.215 7.24507 14.5349 7.40722ZM29.0249 9.09264C28.8396 9.32828 28.8275 9.42718 28.9512 9.69855C29.2089 10.2643 30.0356 10.0479 30.0356 9.41467C30.0356 8.91846 29.337 8.69587 29.0249 9.09264ZM5.69643 13.9236C4.03 14.9287 2.62071 16.629 1.88909 18.5171C1.80051 18.7458 1.63695 19.2847 1.52562 19.7147C1.33244 20.4611 1.32063 20.6293 1.26442 23.4283C1.20196 26.5366 1.18874 26.6526 0.760936 27.8455C0.52178 28.5123 0.511695 28.9189 0.720594 29.4771C0.979843 30.1701 1.32102 30.415 3.64613 31.5765C4.78749 32.1467 5.72097 32.6311 5.72058 32.653C5.72019 32.6749 4.8319 33.0927 3.74651 33.5816C2.66113 34.0704 1.60467 34.5763 1.39874 34.7058C0.934889 34.9974 0.5536 35.4549 0.27035 36.06C0.0598867 36.5095 0.0524594 36.5706 0.0266597 38.0643L0 39.6048L0.198971 39.8038C0.450479 40.0553 0.747801 40.0579 0.994853 39.8107C1.18343 39.6222 1.18679 39.5961 1.18679 38.3002C1.18679 36.1189 1.27255 35.9966 3.5208 34.9734L5.02931 34.2867L7.4666 35.4443L9.90397 36.6018H10.6076C11.4001 36.6018 11.0392 36.7409 14.5511 35.0821L16.2273 34.2903L17.6613 34.9379C18.4501 35.2941 19.2186 35.6858 19.3691 35.8083C19.5197 35.9309 19.7296 36.2025 19.8356 36.4117C20.0173 36.7702 20.0284 36.866 20.0284 38.0796C20.0284 38.7877 20.065 39.4632 20.1096 39.5807C20.2779 40.0232 20.7335 40.1385 21.037 39.8155C21.2093 39.632 21.2123 39.5966 21.1874 38.0369C21.163 36.5035 21.1545 36.4293 20.9541 36.0018C20.7091 35.4794 20.2044 34.9067 19.7587 34.6454C19.5839 34.543 18.5844 34.0704 17.5377 33.5953C16.491 33.1201 15.5975 32.7085 15.5522 32.6805C15.507 32.6525 16.4571 32.1337 17.6636 31.5275C18.87 30.9214 19.9345 30.3552 20.029 30.2692C20.6409 29.7131 20.814 28.7395 20.4704 27.787C20.0442 26.6053 20.0185 26.3851 19.9521 23.3501C19.8735 19.7572 19.7944 19.3968 19.098 19.4571C18.9189 19.4727 18.7823 19.5472 18.6792 19.6859C18.5416 19.871 18.5358 19.9296 18.6205 20.2722C18.6781 20.5046 18.7382 21.7341 18.7748 23.4283C18.8386 26.3807 18.8931 26.8598 19.2909 27.9623C19.3955 28.2525 19.4811 28.6017 19.4811 28.7384C19.4811 29.3104 19.4109 29.3614 16.8657 30.637C15.5574 31.2927 14.4585 31.8007 14.4236 31.7659C14.3888 31.7311 14.3483 31.2176 14.3335 30.6247L14.3067 29.5468L14.7635 29.1945C15.9331 28.2925 16.802 27.0242 17.2238 25.6034C17.3699 25.1113 17.3982 24.7896 17.425 23.311C17.4544 21.6957 17.4467 21.5759 17.2997 21.3412C16.9762 20.8249 16.9074 20.8095 14.9109 20.8072C13.462 20.8055 12.987 20.7774 12.4839 20.6638C11.6326 20.4715 10.6343 20.0879 9.90022 19.6708C9.16844 19.2552 8.04522 18.2168 7.59271 17.5377C7.20813 16.9605 7.00596 16.8302 6.67439 16.9458C6.35362 17.0576 6.21312 17.3985 6.3508 17.7309C6.61834 18.3767 7.73992 19.6138 8.63799 20.2535C9.63542 20.964 11.1947 21.6035 12.6012 21.8788C12.9078 21.9388 13.7374 21.979 14.6926 21.9801L16.2757 21.982V23.2399C16.2757 24.6842 16.1458 25.3634 15.6938 26.2819C14.9936 27.7049 13.5679 28.8501 11.9758 29.2682C11.2947 29.4471 9.92672 29.4428 9.23943 29.2596C7.29249 28.7407 5.79329 27.2975 5.17167 25.3437C5.02806 24.8923 4.99076 24.5543 4.95894 23.4135C4.93768 22.6528 4.94472 21.9003 4.97458 21.7413C5.01469 21.5272 5.17949 21.294 5.60957 20.8425C6.07279 20.3563 6.19037 20.1843 6.19037 19.9933C6.19037 19.6652 5.94825 19.4411 5.59385 19.4411C5.34594 19.4411 5.24243 19.5099 4.77616 19.9845C4.48259 20.2834 4.14414 20.7144 4.02413 20.9422L3.80585 21.3565L3.80663 23.0765C3.80749 24.945 3.86238 25.3039 4.31567 26.4032C4.74379 27.4414 5.55703 28.5007 6.41319 29.1355L6.88775 29.4873L6.88962 30.5428C6.89072 31.1233 6.86203 31.6448 6.82591 31.7019C6.77556 31.7813 6.22446 31.538 4.4621 30.658C3.19815 30.0269 2.0854 29.4382 1.98932 29.3497C1.69582 29.0792 1.69059 28.7582 1.96617 27.9311C2.36771 26.7257 2.43698 26.0813 2.43768 23.5456C2.43839 21.0738 2.51422 20.3204 2.86643 19.287C3.41127 17.6886 4.38971 16.3222 5.66883 15.3731C6.82911 14.5122 6.81582 14.5247 6.81582 14.2864C6.81582 14.0155 6.61036 13.7565 6.34674 13.6948C6.20648 13.6622 6.02275 13.7267 5.69643 13.9236ZM14.5588 14.4523C14.2786 14.7529 14.365 15.1795 14.7378 15.3363C15.0415 15.4639 15.3622 15.3599 15.4831 15.0944C15.6074 14.8216 15.5956 14.723 15.41 14.4871C15.2007 14.221 14.7899 14.2042 14.5588 14.4523ZM25.5967 14.5964C24.5029 14.8194 23.6247 15.863 23.6247 16.9398C23.6247 17.5114 24.2964 17.7897 24.6354 17.3587C24.7245 17.2454 24.7975 17.063 24.7975 16.9534C24.7975 16.6248 25.1005 16.0981 25.3937 15.9168C26.407 15.2906 27.6866 16.3419 27.2625 17.4521C27.0929 17.8961 26.7388 18.1675 26.1978 18.268C25.5313 18.3919 25.5011 18.4612 25.5011 19.865C25.5011 20.9529 25.5145 21.0679 25.6605 21.2245C25.8916 21.4725 26.3024 21.4557 26.5117 21.1896C26.6514 21.0121 26.6739 20.8742 26.6741 20.1928L26.6743 19.402L27.0217 19.2591C27.5279 19.051 28.0399 18.5635 28.2907 18.051C28.4724 17.6797 28.5084 17.5062 28.5053 17.0179C28.5007 16.2606 28.2828 15.7471 27.7574 15.2557C27.1353 14.6738 26.367 14.4394 25.5967 14.5964ZM25.6574 22.881C25.5706 22.9679 25.5011 23.1416 25.5011 23.2719C25.5011 23.8129 26.1268 24.0284 26.4979 23.6154C26.7165 23.3721 26.7201 23.1955 26.5117 22.9307C26.3087 22.6725 25.8903 22.6482 25.6574 22.881ZM9.00489 30.3991C10.07 30.6952 11.957 30.5974 13.0014 30.1921C13.1119 30.1492 13.1332 30.2506 13.1688 30.9879C13.1923 31.4765 13.2644 31.9855 13.3396 32.195C13.5106 32.6713 13.9328 33.1546 14.4217 33.4338L14.8165 33.6592L14.1583 33.9668C13.7964 34.1359 12.9289 34.5429 12.2306 34.8713C11.2503 35.3321 10.8823 35.4682 10.617 35.4682C10.3441 35.4682 9.93384 35.3079 8.62868 34.6915C7.72421 34.2643 6.87172 33.8566 6.73428 33.7856L6.48433 33.6563L6.7478 33.4991C7.16912 33.2479 7.59497 32.8017 7.81607 32.38C7.99581 32.0371 8.02481 31.8755 8.05225 31.0636C8.08282 30.1609 8.08775 30.1393 8.25107 30.1871C8.34317 30.214 8.68239 30.3094 9.00489 30.3991Z" fill="white"/>
</svg>
