<svg width="27" height="30" viewBox="0 0 27 30" fill="none" xmlns="http://www.w3.org/2000/svg">
<path fill-rule="evenodd" clip-rule="evenodd" d="M20.1017 0.0853353C20.3991 0.191326 20.8001 0.616049 20.8814 0.911052C20.9706 1.23453 20.97 17.2168 20.8808 17.5451C20.7992 17.8457 20.3387 18.305 20.0332 18.3904C19.8842 18.4321 18.1273 18.4527 14.7064 18.4529L9.602 18.4532V23.6412V28.8291L9.74481 28.9729L9.88756 29.1167H17.4549H25.0223L25.165 28.9729L25.3079 28.8291V17.7021C25.3079 6.60137 25.3076 6.57483 25.1895 6.42366L25.0712 6.27209L23.6137 6.25463C22.1618 6.23717 22.1558 6.23658 22.0451 6.09878C21.8946 5.91147 21.9043 5.67042 22.0686 5.51492C22.1996 5.39101 22.2436 5.38755 23.6907 5.38755H25.1783L25.4893 5.55125C25.7159 5.67042 25.8482 5.7927 25.9759 6.00076L26.1513 6.2865L26.1664 17.5613C26.1773 25.6401 26.1634 28.905 26.1174 29.079C26.0358 29.3877 25.5807 29.8454 25.2685 29.9327C24.9283 30.0279 9.95719 30.0195 9.63783 29.924C9.32302 29.8298 8.89407 29.3977 8.80054 29.0806C8.76145 28.948 8.72945 28.7041 8.72945 28.5387V28.2379H6.24944C4.46473 28.2379 3.7023 28.2178 3.53 28.1663C3.21519 28.0721 2.78624 27.64 2.6927 27.3229C2.65361 27.1903 2.62162 26.8134 2.62162 26.4854C2.62162 25.9302 2.63151 25.879 2.76443 25.7451C2.94638 25.5618 3.16941 25.5618 3.35136 25.7451C3.48411 25.8788 3.49417 25.9306 3.49417 26.4802C3.49417 27.0297 3.50423 27.0815 3.63697 27.2152L3.77972 27.359H6.25462H8.72945V26.0407V24.7224H4.94062C2.12468 24.7224 1.0903 24.704 0.912357 24.6508C0.597542 24.5566 0.168596 24.1246 0.0750599 23.8075C-0.0155678 23.5 -0.0294132 4.00997 0.0608082 3.69311C0.156904 3.35569 0.404186 3.05793 0.71999 2.89938C1.01427 2.75168 1.02323 2.75097 2.57066 2.75097H4.1256L4.24613 2.90536C4.39644 3.09777 4.39958 3.28297 4.25561 3.4622C4.14468 3.6003 4.14195 3.60054 2.62889 3.61794L1.11333 3.63534L0.994902 3.78697C0.876934 3.93808 0.876524 3.9703 0.876524 13.7473V23.556L1.01933 23.6997L1.16208 23.8436H4.9458H8.72945V22.4667V21.0898H5.81834H2.90718L2.76443 20.946C2.58241 20.7627 2.58241 20.5381 2.76443 20.3548L2.90718 20.211H5.81834H8.72945V19.3321V18.4532H5.81834H2.90718L2.76443 18.3094C2.58241 18.1261 2.58241 17.9015 2.76443 17.7182C2.90677 17.5748 2.91055 17.5744 4.10908 17.5744H5.31099L5.27591 17.4426C5.25665 17.37 5.24048 16.9745 5.24008 16.5637L5.23926 15.8167H4.07325C2.91276 15.8167 2.90648 15.816 2.76443 15.6728C2.58241 15.4896 2.58241 15.2649 2.76443 15.0817C2.90648 14.9385 2.91276 14.9378 4.07325 14.9378H5.23926V14.059V13.1801H4.07325C2.91276 13.1801 2.90648 13.1794 2.76443 13.0363C2.58241 12.853 2.58241 12.6283 2.76443 12.4451C2.90648 12.3019 2.91276 12.3012 4.07325 12.3012H5.23926V11.4224V10.5435H4.07325C2.91276 10.5435 2.90648 10.5428 2.76443 10.3997C2.6859 10.3206 2.62162 10.1876 2.62162 10.1041C2.62162 10.0206 2.6859 9.8876 2.76443 9.8085C2.90648 9.66536 2.91276 9.66466 4.07325 9.66466H5.23926V8.7858V7.90694H4.07325C2.91276 7.90694 2.90648 7.90624 2.76443 7.7631C2.58241 7.57983 2.58241 7.3552 2.76443 7.17192L2.90718 7.02808H4.36671H5.82625L5.969 7.17192L6.11181 7.31571V12.3012V17.2868L6.25462 17.4305L6.39737 17.5744H13.0922H19.787L19.9298 17.4305L20.0726 17.2868V9.22523V1.16369L19.9298 1.01991L19.787 0.876074H13.0922H6.39737L6.25462 1.01991L6.11181 1.16369V3.51265V5.86161L5.969 6.00539C5.78705 6.18872 5.56402 6.18872 5.38207 6.00539L5.23926 5.86161V3.50744C5.23926 1.81282 5.25933 1.08589 5.31087 0.912576C5.40743 0.587984 5.83975 0.144981 6.1409 0.0619577C6.30336 0.0171945 8.40923 -0.00143732 13.1213 8.60331e-05C18.7883 0.00201952 19.9063 0.0156711 20.1017 0.0853353ZM13.9774 1.9631C14.7027 2.14017 15.5219 2.6881 15.9808 3.30301C16.3119 3.74672 16.4197 3.95981 16.591 4.50939C16.72 4.92304 16.7278 5.03518 16.7274 6.47147C16.727 7.99178 16.7267 7.99577 16.5632 8.46297C16.473 8.72047 16.3114 9.07641 16.2039 9.25394C16.0075 9.57859 15.5087 10.13 15.2677 10.2891C15.1576 10.3618 15.1458 10.4014 15.1893 10.5541C15.3177 11.0051 15.5655 11.1749 16.7474 11.6218C17.6991 11.9817 18.0252 12.1651 18.4181 12.5612C19.0213 13.1693 19.1975 13.8021 19.199 15.3652C19.2 16.3948 19.1982 16.4097 19.0572 16.5517L18.9145 16.6955H13.0922H7.26991L7.12716 16.5517C6.98616 16.4097 6.98436 16.3948 6.98535 15.3652C6.98686 13.8021 7.16311 13.1693 7.76628 12.5612C8.15915 12.1651 8.48525 11.9817 9.43697 11.6218C10.6189 11.1749 10.8667 11.0051 10.9951 10.5541C11.0386 10.4014 11.0268 10.3618 10.9166 10.2891C10.6756 10.13 10.1769 9.57859 9.98045 9.25394C9.87301 9.07641 9.71119 8.72047 9.62085 8.46297L9.45658 7.99483L9.45791 6.44218C9.45919 4.90992 9.46129 4.88332 9.61724 4.41623C10.0189 3.21319 11.0528 2.24065 12.2263 1.96205C12.6829 1.85366 13.5313 1.85413 13.9774 1.9631ZM12.332 2.84431C11.3623 3.13087 10.5951 3.96544 10.3855 4.9616C10.2845 5.4418 10.2698 7.30879 10.3631 7.82292C10.5553 8.88295 11.3781 9.76884 12.4257 10.0437C13.3784 10.2936 14.4227 9.98017 15.1031 9.24006C15.4873 8.82195 15.6911 8.43473 15.8006 7.91462C15.9126 7.38238 15.9115 5.49694 15.7989 4.9616C15.5929 3.98219 14.8594 3.16761 13.9072 2.86065C13.497 2.72836 12.7506 2.72062 12.332 2.84431ZM13.8775 10.9234C13.6535 10.9711 13.3001 11.0102 13.0922 11.0102C12.8842 11.0102 12.5309 10.9711 12.3069 10.9234C12.083 10.8756 11.8852 10.8365 11.8673 10.8365C11.8495 10.8365 11.7876 10.9445 11.7297 11.0765C11.4776 11.652 11.08 11.9301 9.81799 12.4137C8.56919 12.8922 8.31633 13.0798 8.01838 13.7488C7.9131 13.9853 7.88931 14.1707 7.86802 14.9232L7.84277 15.8167H13.0922H18.3416L18.3164 14.9232C18.2951 14.1707 18.2713 13.9853 18.166 13.7488C17.8681 13.0798 17.6152 12.8922 16.3664 12.4137C15.1043 11.9301 14.7068 11.652 14.4546 11.0765C14.3968 10.9445 14.3349 10.8365 14.3171 10.8365C14.2992 10.8365 14.1014 10.8756 13.8775 10.9234Z" fill="white"/>
</svg>
